<?xml version="1.0" encoding="UTF-8"?>
<svg version="1.1" xmlns="http://www.w3.org/2000/svg" width="1024" height="1024">
<!--  "#b300f1"     BG "#BD1686"    FG "#FD9FF4" -->
<!--    <path fill="#BD1686" d="M0 0 C2.47702278 -0.00187241 4.95404526 -0.00417482 7.43106729 -0.00686532 C12.77902522 -0.01167515 18.12697078 -0.01344483 23.47492981 -0.01240921 C31.42873157 -0.01087281 39.38252346 -0.01507123 47.33632329 -0.02028384 C62.3764335 -0.02991618 77.41654027 -0.03276655 92.4566532 -0.03334089 C104.08152867 -0.0338019 115.70640281 -0.0358678 127.33127785 -0.03904152 C130.68755303 -0.03993918 134.04382821 -0.040829 137.40010339 -0.0417164 C138.23468925 -0.04193744 139.0692751 -0.04215849 139.92915144 -0.04238624 C163.38126831 -0.0485341 186.83338472 -0.05248746 210.28550243 -0.05204296 C211.16834055 -0.05202738 212.05117866 -0.0520118 212.96076944 -0.05199575 C217.43449403 -0.05191266 221.90821861 -0.05181362 226.38194319 -0.05171105 C227.27030302 -0.0516911 228.15866285 -0.05167115 229.07394268 -0.05165061 C230.87042179 -0.05161017 232.66690091 -0.05156837 234.46338002 -0.05152521 C262.38748256 -0.05091303 290.31157294 -0.05841109 318.235672 -0.07209778 C349.67259152 -0.08750021 381.10950306 -0.09606148 412.54642659 -0.09513456 C415.90678839 -0.09505994 419.26715018 -0.09501122 422.62751198 -0.09498024 C423.86844353 -0.09496276 423.86844353 -0.09496276 425.1344444 -0.09494492 C438.37577236 -0.09491431 451.61708965 -0.10126606 464.85841445 -0.1099125 C478.19699502 -0.1184415 491.5355602 -0.1193383 504.87414201 -0.11280318 C512.08238649 -0.10946085 519.29059589 -0.10919386 526.49883652 -0.11815643 C624.02369575 -0.2333212 624.02369575 -0.2333212 660.84919739 11.13371277 C661.86264221 11.44598816 661.86264221 11.44598816 662.89656067 11.76457214 C680.62885496 17.42705865 697.19234306 26.74881939 711.84919739 38.13371277 C712.71286926 38.78726746 713.57654114 39.44082214 714.46638489 40.11418152 C735.37805613 56.31571595 751.97006868 76.09243934 764.84919739 99.13371277 C765.46536926 100.22812683 766.08154114 101.32254089 766.71638489 102.45011902 C788.0924165 142.68456075 788.01515601 191.83722222 787.98291016 236.28451538 C787.98478257 238.76153816 787.98708497 241.23856064 787.98977548 243.71558267 C787.99458531 249.06354061 787.99635499 254.41148616 787.99531937 259.75944519 C787.99378297 267.71324695 787.99798139 275.66703885 788.00319399 283.62083867 C788.01282634 298.66094888 788.01567671 313.70105565 788.01625105 328.74116858 C788.01671205 340.36604405 788.01877796 351.99091819 788.02195168 363.61579323 C788.02284934 366.97206841 788.02373915 370.32834359 788.02462655 373.68461877 C788.0248476 374.51920463 788.02506865 375.35379048 788.0252964 376.21366682 C788.03144425 399.66578369 788.03539762 423.1179001 788.03495312 446.57001781 C788.03493754 447.45285593 788.03492196 448.33569404 788.03490591 449.24528482 C788.03482281 453.71900941 788.03472377 458.19273399 788.0346212 462.66645857 C788.03459128 463.99899832 788.03459128 463.99899832 788.03456076 465.35845806 C788.03452032 467.15493718 788.03447853 468.95141629 788.03443537 470.7478954 C788.03382319 498.67199794 788.04132125 526.59608832 788.05500793 554.52018738 C788.07041036 585.9571069 788.07897163 617.39401844 788.07804471 648.83094198 C788.07797009 652.19130377 788.07792138 655.55166556 788.0778904 658.91202736 C788.07787874 659.73931506 788.07786709 660.56660276 788.07785508 661.41895978 C788.07782447 674.66028774 788.08417622 687.90160503 788.09282266 701.14292983 C788.10135166 714.4815104 788.10224845 727.82007558 788.09571334 741.15865739 C788.092371 748.36690187 788.09210402 755.57511127 788.10106659 762.7833519 C788.21623136 860.30821113 788.21623136 860.30821113 776.84919739 897.13371277 C776.64101379 897.80934265 776.4328302 898.48497253 776.21833801 899.18107605 C770.5558515 916.91337034 761.23409076 933.47685844 749.84919739 948.13371277 C749.1956427 948.99738464 748.54208801 949.86105652 747.86872864 950.75090027 C731.66719421 971.66257151 711.89047082 988.25458406 688.84919739 1001.13371277 C687.75478333 1001.74988464 686.66036926 1002.36605652 685.53279114 1003.00090027 C645.29834941 1024.37693188 596.14568794 1024.29967139 551.69839478 1024.26742554 C549.221372 1024.26929795 546.74434951 1024.27160035 544.26732749 1024.27429086 C538.91936955 1024.27910069 533.571424 1024.28087037 528.22346497 1024.27983475 C520.26966321 1024.27829835 512.31587131 1024.28249677 504.36207148 1024.28770937 C489.32196128 1024.29734172 474.2818545 1024.30019209 459.24174158 1024.30076643 C447.61686611 1024.30122743 435.99199197 1024.30329334 424.36711693 1024.30646706 C421.01084175 1024.30736472 417.65456657 1024.30825454 414.29829139 1024.30914193 C413.46370553 1024.30936298 412.62911967 1024.30958403 411.76924334 1024.30981178 C388.31712647 1024.31595963 364.86501006 1024.319913 341.41289234 1024.3194685 C340.53005423 1024.31945292 339.64721612 1024.31943734 338.73762533 1024.31942129 C334.26390075 1024.31933819 329.79017617 1024.31923915 325.31645159 1024.31913658 C324.42809175 1024.31911664 323.53973192 1024.31909669 322.62445209 1024.31907614 C320.82797298 1024.3190357 319.03149387 1024.31899391 317.23501476 1024.31895075 C289.31091222 1024.31833857 261.38682184 1024.32583663 233.46272278 1024.33952332 C202.02580325 1024.35492574 170.58889171 1024.36348701 139.15196818 1024.36256009 C135.79160639 1024.36248547 132.43124459 1024.36243676 129.0708828 1024.36240578 C127.82995125 1024.3623883 127.82995125 1024.3623883 126.56395038 1024.36237046 C113.32262242 1024.36233985 100.08130513 1024.3686916 86.83998033 1024.37733804 C73.50139976 1024.38586704 60.16283457 1024.38676383 46.82425276 1024.38022872 C39.61600828 1024.37688638 32.40779889 1024.3766194 25.19955826 1024.38558197 C-72.32530097 1024.50074674 -72.32530097 1024.50074674 -109.15080261 1013.13371277 C-109.8264325 1012.92552917 -110.50206238 1012.71734558 -111.19816589 1012.50285339 C-128.93046018 1006.84036689 -145.49394829 997.51860614 -160.15080261 986.13371277 C-161.44631042 985.15338074 -161.44631042 985.15338074 -162.76799011 984.15324402 C-183.67966136 967.95170959 -200.2716739 948.1749862 -213.15080261 925.13371277 C-213.76697449 924.03929871 -214.38314636 922.94488464 -215.01799011 921.81730652 C-236.39402173 881.58286479 -236.31676123 832.43020332 -236.28451538 787.98291016 C-236.28638779 785.50588738 -236.2886902 783.02886489 -236.2913807 780.55184287 C-236.29619053 775.20388493 -236.29796021 769.85593938 -236.29692459 764.50798035 C-236.29538819 756.55417859 -236.29958661 748.60038669 -236.30479922 740.64658686 C-236.31443156 725.60647666 -236.31728193 710.56636988 -236.31785627 695.52625696 C-236.31831728 683.90138149 -236.32038318 672.27650735 -236.3235569 660.65163231 C-236.32445456 657.29535713 -236.32534438 653.93908195 -236.32623178 650.58280677 C-236.32645283 649.74822091 -236.32667387 648.91363506 -236.32690162 648.05375872 C-236.33304948 624.60164185 -236.33700284 601.14952544 -236.33655834 577.69740772 C-236.33654276 576.81456961 -236.33652718 575.9317315 -236.33651113 575.02214071 C-236.33642804 570.54841613 -236.336329 566.07469155 -236.33622643 561.60096697 C-236.33620648 560.71260713 -236.33618654 559.8242473 -236.33616599 558.90896747 C-236.33612555 557.11248836 -236.33608375 555.31600925 -236.33604059 553.51953014 C-236.33542842 525.5954276 -236.34292647 497.67133722 -236.35661316 469.74723816 C-236.37201559 438.31031863 -236.38057686 406.8734071 -236.37964994 375.43648356 C-236.37957532 372.07612177 -236.3795266 368.71575997 -236.37949562 365.35539818 C-236.37948397 364.52811048 -236.37947231 363.70082278 -236.3794603 362.84846576 C-236.37942969 349.6071378 -236.38578145 336.36582051 -236.39442789 323.12449571 C-236.40295688 309.78591514 -236.40385368 296.44734995 -236.39731856 283.10876814 C-236.39397623 275.90052367 -236.39370924 268.69231427 -236.40267181 261.48407364 C-236.51783658 163.95921441 -236.51783658 163.95921441 -225.15080261 127.13371277 C-224.94261902 126.45808289 -224.73443542 125.782453 -224.51994324 125.08634949 C-218.85745673 107.3540552 -209.53569599 90.7905671 -198.15080261 76.13371277 C-197.49724792 75.27004089 -196.84369324 74.40636902 -196.17033386 73.51652527 C-179.96879943 52.60485402 -160.19207604 36.01284148 -137.15080261 23.13371277 C-136.05638855 22.51754089 -134.96197449 21.90136902 -133.83439636 21.26652527 C-93.59995463 -0.10950635 -44.44729316 -0.03224585 0 0 Z " transform="translate(236.1508026123047,-0.1337127685546875)"/>-->
    <path fill="#b300f1" d="M0 0 C0.95729004 -0.00710495 1.91458008 -0.0142099 2.90087891 -0.02153015 C39.76429852 -0.23219845 74.49703081 2.87248987 110.62109375 10.203125 C111.81557129 10.44401855 113.01004883 10.68491211 114.24072266 10.93310547 C142.001867 16.68759828 168.82955814 26.56945815 194.62109375 38.203125 C195.47268066 38.58146484 196.32426758 38.95980469 197.20166016 39.34960938 C224.34506479 51.45681769 249.72276338 67.25977021 272.62109375 86.203125 C273.46921631 86.89897705 273.46921631 86.89897705 274.33447266 87.60888672 C280.46725583 92.65284757 286.39766175 97.79465134 291.92578125 103.5078125 C293.77745339 105.41634004 293.77745339 105.41634004 296.68359375 107.703125 C299.69852949 110.26902775 302.15633851 112.9770092 304.71484375 115.984375 C306.73635214 118.3372782 308.83084133 120.6101752 310.93359375 122.890625 C339.41362535 154.55655844 358.80267691 193.67437206 367.62109375 235.203125 C367.89228027 236.46624512 367.89228027 236.46624512 368.16894531 237.75488281 C370.85159897 250.99748526 370.9259977 264.36983468 370.99609375 277.828125 C371.0081485 279.11576248 371.0081485 279.11576248 371.02044678 280.42941284 C371.44112872 339.71653043 344.46239188 395.75704548 304.2734375 438.36328125 C302.22586074 440.5556057 300.27391971 442.76276224 298.37109375 445.078125 C295.80844941 448.11478448 292.94983727 450.64486778 289.921875 453.2109375 C287.26799317 455.50886574 284.73641978 457.91848073 282.18359375 460.328125 C263.26271873 477.83243155 241.06071913 491.70575788 218.62109375 504.203125 C217.69200195 504.73147949 217.69200195 504.73147949 216.74414062 505.27050781 C204.50353126 512.231253 191.57723141 517.72646568 178.62109375 523.203125 C177.80737305 523.54762695 176.99365234 523.89212891 176.15527344 524.24707031 C134.07614754 541.84915758 88.88125129 550.00849685 43.62109375 553.203125 C42.37013916 553.29883789 41.11918457 553.39455078 39.83032227 553.49316406 C33.52351643 553.97010335 27.25924626 554.37269277 20.93359375 554.328125 C20.1456543 554.32329102 19.35771484 554.31845703 18.54589844 554.31347656 C15.90401562 554.28814205 13.26272645 554.24726962 10.62109375 554.203125 C9.20546143 554.18427246 9.20546143 554.18427246 7.76123047 554.16503906 C-7.07227194 553.9274703 -21.75287333 552.82470867 -36.50390625 551.328125 C-37.72503113 551.20648987 -37.72503113 551.20648987 -38.9708252 551.08239746 C-49.01832152 550.06998496 -58.92226229 548.69912336 -68.84765625 546.83349609 C-77.09001516 545.36213473 -81.76830588 546.02042111 -89.2890625 549.734375 C-92.59906119 551.30777513 -95.93514982 552.57452477 -99.37890625 553.828125 C-108.16097042 557.04253949 -116.79983999 560.59860489 -125.44726562 564.15673828 C-130.93035328 566.40854782 -136.42243663 568.61816782 -141.9609375 570.73046875 C-147.13718402 572.70695292 -152.25688259 574.79197689 -157.36425781 576.93945312 C-162.64367788 579.15246562 -167.95069145 581.29790856 -173.25390625 583.453125 C-180.47051625 586.38764332 -187.68506252 589.32701449 -194.89479065 592.27839661 C-198.7043417 593.83775288 -202.51445835 595.39572497 -206.32458496 596.95367432 C-208.38886214 597.79812134 -210.45290232 598.64314794 -212.51672363 599.4887085 C-219.01094173 602.14890546 -225.5104173 604.79559843 -232.01635742 607.42700195 C-234.24506809 608.33105023 -236.47191846 609.23969627 -238.69702148 610.15258789 C-241.97056819 611.49471119 -245.25009125 612.82114585 -248.53125 614.14453125 C-249.51979477 614.55377335 -250.50833954 614.96301544 -251.52684021 615.38465881 C-256.71099862 617.45590132 -260.78384418 618.84194396 -266.37890625 618.203125 C-268.81640625 616.828125 -268.81640625 616.828125 -270.37890625 614.203125 C-271.41595096 605.60935493 -269.5005344 596.75782028 -268.25390625 588.265625 C-268.02791413 586.68963926 -267.8026729 585.11354568 -267.578125 583.53735352 C-267.09885922 580.1771581 -266.6163187 576.81745478 -266.13183594 573.45800781 C-265.36765324 568.14345322 -264.62459296 562.82607622 -263.88671875 557.5078125 C-263.76273712 556.6143663 -263.63875549 555.7209201 -263.51101685 554.80039978 C-263.25964138 552.98838892 -263.00830885 551.1763721 -262.75701904 549.36434937 C-260.55425308 533.49678965 -258.31323796 517.63485046 -256.02734375 501.77905273 C-255.08032768 495.20101541 -254.14980089 488.62088575 -253.2578125 482.03515625 C-253.01526733 480.24815308 -253.01526733 480.24815308 -252.76782227 478.42504883 C-251.93086747 471.49140633 -251.73624309 466.40205151 -255.37890625 460.203125 C-257.22492729 458.13650915 -259.05048027 456.2263187 -261.04296875 454.31640625 C-261.59447601 453.77388718 -262.14598328 453.2313681 -262.71420288 452.67240906 C-264.47036583 450.94607534 -266.23607911 449.23000621 -268.00390625 447.515625 C-275.99200432 439.74898576 -283.51910162 432.00629729 -290.37890625 423.203125 C-291.25882617 422.11849941 -292.14003635 421.03491709 -293.0234375 419.953125 C-325.05613406 379.32065945 -343.57204973 329.11998083 -343.62890625 277.328125 C-343.63024567 276.60346039 -343.63158508 275.87879578 -343.63296509 275.13217163 C-343.62810073 262.94461152 -342.73721057 251.17330603 -340.37890625 239.203125 C-340.13914062 237.93082031 -339.899375 236.65851563 -339.65234375 235.34765625 C-338.96503436 231.94509712 -338.19532045 228.57683661 -337.37890625 225.203125 C-336.98445312 223.49576172 -336.98445312 223.49576172 -336.58203125 221.75390625 C-328.28341541 188.0862762 -311.21261835 156.93174996 -289.37890625 130.203125 C-288.87456055 129.58308594 -288.37021484 128.96304688 -287.85058594 128.32421875 C-275.52551075 113.31423707 -261.77496733 99.06675648 -246.37890625 87.203125 C-245.25494503 86.28213417 -244.13405871 85.35738301 -243.015625 84.4296875 C-182.29564129 34.33488613 -102.57573983 7.87488176 -24.88964844 1.49682617 C-22.88791246 1.32936523 -20.88671752 1.15391427 -18.88795471 0.95407104 C-12.57787989 0.33392772 -6.33902066 0.03155231 0 0 Z " transform="translate(498.37890625,199.796875)"/>
</svg>
